<svg width="369" height="369" viewBox="0 0 369 369" fill="none" xmlns="http://www.w3.org/2000/svg">
<path d="M184.5 0L344.282 276.75H24.7183L184.5 0Z" fill="#FFA62B"/>
<circle cx="122.5" cy="146.5" r="79.5" fill="#16697A"/>
<path d="M100.68 161.72L116.04 125.24H119.304L99.592 171.384H97.8L78.024 125.24H81.48L96.84 161.592C97.9067 164.195 98.568 165.987 98.824 166.968C99.1653 165.603 99.784 163.853 100.68 161.72ZM149.768 171.768C143.112 171.768 137.394 169.507 132.616 164.984C127.837 160.419 125.448 154.808 125.448 148.152C125.448 141.453 127.538 135.843 131.72 131.32C135.901 126.755 141.256 124.472 147.784 124.472C152.904 124.472 158.088 125.325 163.336 127.032L162.504 129.592C157.384 128.056 152.477 127.288 147.784 127.288C142.194 127.288 137.629 129.293 134.088 133.304C130.546 137.315 128.776 142.221 128.776 148.024C128.776 153.827 130.824 158.776 134.92 162.872C139.058 166.925 144.008 168.952 149.768 168.952C154.802 168.952 159.154 168.184 162.824 166.648L163.784 168.824C162.162 169.763 160.029 170.488 157.384 171C154.781 171.512 152.242 171.768 149.768 171.768Z" fill="#EDE6E3"/>
</svg>
